<?xml version="1.0" encoding="utf-8"?>
<!-- Generator: Adobe Illustrator 23.0.3, SVG Export Plug-In . SVG Version: 6.00 Build 0)  -->
<svg version="1.1" id="Capa_1" xmlns="http://www.w3.org/2000/svg" xmlns:xlink="http://www.w3.org/1999/xlink" x="0px" y="0px"
	 viewBox="0 0 1477.2 610.7" style="enable-background:new 0 0 1477.2 610.7;" xml:space="preserve">
<style type="text/css">
	.st0{fill:#FFFFFF;}
	.st1{fill:#051633;}
</style>
<g>
	<g>
		<rect transform="matrix(-1 -1.224647e-16 1.224647e-16 -1 1477.1708 610.6593)" class="st0" width="1477.2" height="610.7"/>
	</g>
	<g>
		<g>
			<path class="st1" d="M1326.2,321.1v-0.2c2.3-0.7,3.8-2.2,3.8-4.4c0-1.7-0.8-3.2-1.8-4c-1.4-0.8-3-1.4-6.4-1.4c-3,0-5.4,0.3-7,0.7
				v18.2h4.2v-7.3h2c2.4,0,3.5,0.9,3.8,2.9c0.6,2.1,0.9,3.7,1.5,4.4h4.6c-0.4-0.5-0.7-1.7-1.3-4.5
				C1329.1,323.1,1328.1,321.7,1326.2,321.1z M1321.2,319.8h-2v-5.3c0.5-0.2,1.3-0.2,2.4-0.2c2.7,0,3.9,1.1,3.9,2.8
				C1325.5,319,1323.6,319.8,1321.2,319.8z"/>
			<path class="st1" d="M1322.1,302.2h-0.1c-10.5,0-18.9,8.2-18.9,18.4c0,10.4,8.4,18.5,18.9,18.5c10.7,0,18.9-8.1,18.9-18.5
				C1340.8,310.3,1332.6,302.2,1322.1,302.2z M1322.1,335.2c-8.3,0-14.4-6.5-14.4-14.7c0-8.1,6.1-14.7,14.1-14.7h0.1
				c8.2,0,14.2,6.6,14.2,14.7C1336.1,328.8,1330.2,335.4,1322.1,335.2z"/>
			<g>
				<path class="st1" d="M458.8,173c-36.3-98.7-92-59.2-94.9-56.6c-57.5,36.9-104.5,153.8-104.5,154.1c-0.9,8.1,5.3-0.5,5.7-0.9
					c22.8-49.5,52.2-84,55.7-87.1c44.1-51.1,60.2,8.8,60.2,8.8c15.2,33.7,14.9,145.6,14.9,145.6h84.6c1.8-25.4-5.5-88.3-6.1-93.8
					C467.8,195.7,459.7,175.9,458.8,173z"/>
				<path class="st1" d="M352,173.9c-22.8,49.5-52.2,83.9-55.7,87c-44.1,51.1-60.2-8.8-60.2-8.8c-15.2-33.7-14.9-145.6-14.9-145.6
					h-84.6c-1.8,25.4,5.5,88.3,6.1,93.8c6.7,47.6,14.8,67.3,15.7,70.2c36.3,98.7,92,59.2,94.9,56.6
					c57.5-36.8,104.5-153.8,104.5-154.1C358.6,164.9,352.4,173.5,352,173.9z"/>
			</g>
			<path class="st1" d="M638.6,293.9c0,4.2-4,7.4-12,9.5c-8,2.2-19.1,3.2-33.3,3.2c-13.7,0-24.6-1.1-32.8-3.3
				c-8.2-2.2-12.3-5.4-12.3-9.4v-91.4H512v92.6c0,16.3,8.4,26.8,25.4,34c13.2,5.6,31.8,8.4,55.9,8.4c23.3,0,42-3.1,56.1-9.2
				c16.9-7.5,25.4-17.7,25.4-33.2v-92.6h-36.1V293.9z"/>
			<path class="st1" d="M823.7,211.9c-12.1-6.2-29.6-9.2-52.4-9.2c-23.2,0-40.6,2.8-52.2,8.5c-14.1,7-21.2,18.7-21.2,35.1v91.3h36.7
				v-92.5c0-4.5,2.7-7.8,8.2-9.9c5.5-2,15-3.1,28.5-3.1c13.4,0,22.9,1.1,28.5,3.2c5.6,2.2,8.4,5.4,8.4,9.7v92.5h36.7v-91.3
				C844.9,230.5,837.9,219.1,823.7,211.9z"/>
			<path class="st1" d="M1271.1,211.9c-12.1-6.2-29.6-9.2-52.3-9.2c-23.2,0-40.6,2.8-52.2,8.5c-14.1,7-21.2,18.7-21.2,35.1v91.3
				h36.7v-92.5c0-4.5,2.7-7.8,8.2-9.9c5.4-2,15-3.1,28.5-3.1c13.4,0,22.9,1.1,28.5,3.2c5.6,2.2,8.4,5.4,8.4,9.7v92.5h36.7v-91.3
				C1292.3,230.5,1285.2,219.1,1271.1,211.9z"/>
			<rect x="867.3" y="205.6" class="st1" width="36.6" height="132"/>
			<rect x="1085.4" y="205.6" class="st1" width="36.6" height="132"/>
			<path class="st1" d="M933.6,216.7c-6.7,6.5-8.3,14.4-8.3,23.8v97.1h36.2v-50.6h110v-29.5h-110v-17.7c0-0.9,0.3-1.7,1-2.4
				c0.7-0.6,1.5-0.9,2.5-0.9h106.6v-29.5h-110C951.8,206.9,940.3,210.2,933.6,216.7z"/>
		</g>
		<g>
			<path class="st1" d="M165.4,474.2h-17v29.4h-11.3v-74.7h28.3c14.6,0,23.9,9.7,23.9,22.7C189.4,464.5,180,474.2,165.4,474.2z
				 M164.8,439h-16.4v24.9h16.4c7.9,0,13.2-4.5,13.2-12.4C178,443.6,172.7,439,164.8,439z"/>
			<path class="st1" d="M243.8,496.2c-5.1,5.1-11.8,8-19.7,8s-14.5-2.8-19.6-8c-7.3-7.3-7.2-15.6-7.2-30c0-14.4-0.1-22.7,7.2-30
				c5.1-5.1,11.6-8,19.6-8s14.6,2.8,19.7,8c7.3,7.3,7.1,15.6,7.1,30C251,480.6,251.2,488.9,243.8,496.2z M235.2,443
				c-2.6-2.8-6.7-4.6-11.1-4.6s-8.5,1.8-11.1,4.6c-3.7,4-4.4,8.2-4.4,23.2c0,15,0.7,19.2,4.4,23.2c2.6,2.8,6.7,4.6,11.1,4.6
				s8.5-1.8,11.1-4.6c3.7-4,4.4-8.2,4.4-23.2C239.6,451.2,238.9,447,235.2,443z"/>
			<path class="st1" d="M310.1,496.5c-4.7,4.7-11.5,7-19.3,7h-26.2v-74.7h26.2c7.8,0,14.6,2.3,19.3,7c8.1,8.1,7.6,19,7.6,29.8
				C317.7,476.5,318.2,488.4,310.1,496.5z M302.4,444.1c-3.1-3.5-7.3-5-12.7-5h-13.7v54.4h13.7c5.4,0,9.5-1.6,12.7-5
				c3.9-4.3,4-12.4,4-22.7C306.4,455.4,306.3,448.4,302.4,444.1z"/>
			<path class="st1" d="M331.3,503.6v-74.7h47.7V439h-36.4v21.8h31.1v10.1h-31.1v22.5h36.4v10.2H331.3z"/>
			<path class="st1" d="M432.7,503.6l-15.7-31.5h-14.2v31.5h-11.3v-74.7h29c14.2,0,23.2,9.1,23.2,21.8c0,10.7-6.5,17.5-14.9,19.8
				l17.2,33.1H432.7z M419.6,439h-16.8v23.4h16.8c7.6,0,12.7-4.3,12.7-11.6C432.3,443.4,427.1,439,419.6,439z"/>
			<path class="st1" d="M507.4,474.2h-17v29.4h-11.3v-74.7h28.3c14.6,0,23.9,9.7,23.9,22.7C531.3,464.5,522,474.2,507.4,474.2z
				 M506.8,439h-16.4v24.9h16.4c7.9,0,13.2-4.5,13.2-12.4C520,443.6,514.6,439,506.8,439z"/>
			<path class="st1" d="M579.6,503.6l-5.1-15H545l-5.1,15h-12.1l27.4-74.7h9.1l27.4,74.7H579.6z M560,445.7l-11.6,33.2h23L560,445.7
				z"/>
			<path class="st1" d="M640.3,503.6l-15.7-31.5h-14.2v31.5h-11.3v-74.7h29c14.2,0,23.2,9.1,23.2,21.8c0,10.7-6.5,17.5-14.9,19.8
				l17.2,33.1H640.3z M627.2,439h-16.8v23.4h16.8c7.6,0,12.7-4.3,12.7-11.6C639.9,443.4,634.8,439,627.2,439z"/>
			<path class="st1" d="M707.6,503.6l-5.1-15H673l-5.1,15h-12.1l27.4-74.7h9.1l27.4,74.7H707.6z M688,445.7l-11.6,33.2h23L688,445.7
				z"/>
			<path class="st1" d="M774.4,439v64.5h-11.3V439h-20.6v-10.2H795V439H774.4z"/>
			<path class="st1" d="M830.4,504.2c-15.2,0-26.8-10.4-26.8-25.8v-49.5h11.3v49c0,10,6.1,16.2,15.4,16.2s15.5-6.2,15.5-16.2v-49
				h11.3v49.5C857.2,493.8,845.6,504.2,830.4,504.2z"/>
			<path class="st1" d="M940.3,503.6L905.8,451v52.6h-11.3v-74.7h10.4l34.5,52.5v-52.5h11.3v74.7H940.3z"/>
			<path class="st1" d="M967.1,503.6v-74.7h47.7V439h-36.4v21.8h31.1v10.1h-31.1v22.5h36.4v10.2H967.1z"/>
			<path class="st1" d="M1071.9,495.7c-5.7,6-12.7,8.5-20.6,8.5c-7.8,0-14.5-2.8-19.6-8c-7.3-7.3-7.2-15.6-7.2-30
				c0-14.4-0.1-22.7,7.2-30c5.1-5.1,11.6-8,19.6-8c15.8,0,25.1,10.4,27.2,23.2h-11.4c-1.9-8.2-7.3-13-15.7-13c-4.4,0-8.4,1.8-11,4.6
				c-3.7,4-4.5,8.2-4.5,23.2c0,15,0.8,19.3,4.5,23.3c2.6,2.8,6.6,4.5,11,4.5c4.9,0,9.2-1.9,12.2-5.2c2.7-3.1,3.8-6.9,3.8-11.8v-4.2
				h-15.9v-9.7h27.3v11.4C1078.6,484.2,1076.8,490.4,1071.9,495.7z"/>
			<path class="st1" d="M1136,496.2c-5.1,5.1-11.8,8-19.7,8c-8,0-14.5-2.8-19.6-8c-7.3-7.3-7.2-15.6-7.2-30c0-14.4-0.1-22.7,7.2-30
				c5.1-5.1,11.6-8,19.6-8c8,0,14.6,2.8,19.7,8c7.3,7.3,7.1,15.6,7.1,30C1143.1,480.6,1143.3,488.9,1136,496.2z M1127.4,443
				c-2.6-2.8-6.7-4.6-11.1-4.6c-4.4,0-8.5,1.8-11.1,4.6c-3.7,4-4.4,8.2-4.4,23.2c0,15,0.7,19.2,4.4,23.2c2.6,2.8,6.7,4.6,11.1,4.6
				c4.4,0,8.5-1.8,11.1-4.6c3.7-4,4.4-8.2,4.4-23.2C1131.8,451.2,1131.1,447,1127.4,443z"/>
			<path class="st1" d="M1180.9,504.2c-7.8,0-14.5-2.8-19.6-8c-7.3-7.3-7.2-15.6-7.2-30c0-14.4-0.1-22.7,7.2-30
				c5.1-5.1,11.9-8,19.6-8c13.7,0,24,8.1,26.7,23H1196c-1.8-7.6-6.8-12.8-15.1-12.8c-4.4,0-8.4,1.7-11,4.5c-3.7,4-4.5,8.3-4.5,23.3
				c0,15,0.8,19.3,4.5,23.3c2.6,2.8,6.6,4.5,11,4.5c8.3,0,13.4-5.2,15.2-12.8h11.4C1205,496.1,1194.4,504.2,1180.9,504.2z"/>
			<path class="st1" d="M1219.5,503.6v-74.7h11.3v74.7H1219.5z"/>
			<path class="st1" d="M1291.1,496.2c-5.1,5.1-11.8,8-19.7,8c-8,0-14.5-2.8-19.6-8c-7.3-7.3-7.2-15.6-7.2-30
				c0-14.4-0.1-22.7,7.2-30c5.1-5.1,11.6-8,19.6-8c8,0,14.6,2.8,19.7,8c7.3,7.3,7.1,15.6,7.1,30
				C1298.2,480.6,1298.4,488.9,1291.1,496.2z M1282.5,443c-2.6-2.8-6.7-4.6-11.1-4.6c-4.4,0-8.5,1.8-11.1,4.6
				c-3.7,4-4.4,8.2-4.4,23.2c0,15,0.7,19.2,4.4,23.2c2.6,2.8,6.7,4.6,11.1,4.6c4.4,0,8.5-1.8,11.1-4.6c3.7-4,4.4-8.2,4.4-23.2
				C1286.9,451.2,1286.1,447,1282.5,443z"/>
		</g>
	</g>
</g>
</svg>
